
<svg width="1920px" height="1080px" viewBox="0 0 1920 1080" version="1.1" xmlns="http://www.w3.org/2000/svg" xmlns:xlink="http://www.w3.org/1999/xlink">
    <!-- Generator: Sketch 50.2 (55047) - http://www.bohemiancoding.com/sketch -->
    <desc>Created with Sketch.</desc>
    <defs>
        <linearGradient x1="50%" y1="0%" x2="50%" y2="100%" id="linearGradient-1">
            <stop stop-color="#6929ff" stop-opacity="0.39209692" offset="0%"></stop>
            <stop stop-color="#6929ff" stop-opacity="0.282269022" offset="100%"></stop>
        </linearGradient>
        <linearGradient x1="50%" y1="7.57089957%" x2="50%" y2="100%" id="linearGradient-2">
            <stop stop-color="#6929ff" offset="0%"></stop>
            <stop stop-color="#6929ff" offset="100%"></stop>
        </linearGradient>
    </defs>
    <g id="Page-1" stroke="none" stroke-width="1" fill="none" fill-rule="evenodd">
        <g id="Artboard" fill="url(#linearGradient-1)" stroke="url(#linearGradient-2)" stroke-width="2">
            <path d="M0,868.56027 C33.1034483,868.56027 33.1034483,746.897955 66.2068966,746.897955 C99.3103448,746.897955 99.3103448,898.975849 132.413793,898.975849 C165.517241,898.975849 165.517241,916.35618 198.62069,916.35618 C231.724138,916.35618 231.724138,844.662315 264.827586,844.662315 C297.931034,844.662315 297.931034,920.701263 331.034483,920.701263 C364.137931,920.701263 364.137931,725.172541 397.241379,725.172541 C430.344828,725.172541 430.344828,816.419278 463.448276,816.419278 C496.551724,816.419278 496.551724,759.933203 529.655172,759.933203 C562.758621,759.933203 562.758621,872.905353 595.862069,872.905353 C628.965517,872.905353 628.965517,892.458225 662.068966,892.458225 C695.172414,892.458225 695.172414,768.623368 728.275862,768.623368 C761.37931,768.623368 761.37931,723 794.482759,723 C827.586207,723 827.586207,809.901654 860.689655,809.901654 C893.793103,809.901654 893.793103,772.968451 926.896552,772.968451 C960,772.968451 960,857.697564 993.103448,857.697564 C1026.2069,857.697564 1026.2069,755.58812 1059.31034,755.58812 C1092.41379,755.58812 1092.41379,809.901654 1125.51724,809.901654 C1158.62069,809.901654 1158.62069,770.79591 1191.72414,770.79591 C1224.82759,770.79591 1224.82759,901.14839 1257.93103,901.14839 C1291.03448,901.14839 1291.03448,766.450827 1324.13793,766.450827 C1357.24138,766.450827 1357.24138,877.250436 1390.34483,877.250436 C1423.44828,877.250436 1423.44828,875.077894 1456.55172,875.077894 C1489.65517,875.077894 1489.65517,788.17624 1522.75862,788.17624 C1555.86207,788.17624 1555.86207,862.042646 1588.96552,862.042646 C1622.06897,862.042646 1622.06897,744.725413 1655.17241,744.725413 C1688.27586,744.725413 1688.27586,931.563969 1721.37931,931.563969 C1754.48276,931.563969 1754.48276,835.97215 1787.58621,835.97215 C1820.68966,835.97215 1820.68966,757.760662 1853.7931,757.760662 C1886.89655,757.760662 1886.89655,783.831158 1920,783.831158 L1979.41855,1130.77003 L-15.169295,1130.77003 L0,868.56027 Z" id="line_2"></path>
        </g>
    </g>
</svg>